<?xml version="1.0" encoding="utf-8"?><svg xmlns="http://www.w3.org/2000/svg" xmlns:xlink="http://www.w3.org/1999/xlink" width="1554" height="851" preserveAspectRatio="xMidYMid" viewBox="0 0 1554 851" style="z-index:1;margin-right:-2px;display:block;background-repeat-y:initial;background-repeat-x:initial;background-color:rgb(229, 230, 230);animation-play-state:paused" ><g transform="translate(777,425.5) scale(1,1) translate(-777,-425.5)" style="transform:matrix(1, 0, 0, 1, 0, 0);animation-play-state:paused" ><linearGradient id="lg-0.47816362694100456" x1="0" x2="1" y1="0" y2="0" style="animation-play-state:paused" ><stop stop-color="#518da6" offset="0" style="animation-play-state:paused" ></stop>

  
<stop stop-color="#00ffff" offset="1" style="animation-play-state:paused" ></stop></linearGradient>
<path d="M 0 0 L 0 700.635 Q 155.4 748.748 310.8 721.849 T 621.6 699.078 T 932.4 707.649 T 1243.2 699.688 T 1554 686 L 1554 0 Z" fill="url(#lg-0.47816362694100456)" opacity="0.4" style="opacity:0.4;animation-play-state:paused" ></path>
<path d="M 0 0 L 0 679.222 Q 155.4 720.199 310.8 697.59 T 621.6 722.373 T 932.4 710.508 T 1243.2 702.806 T 1554 692.38 L 1554 0 Z" fill="url(#lg-0.47816362694100456)" opacity="0.4" style="opacity:0.4;animation-play-state:paused" ></path>
<path d="M 0 0 L 0 694.465 Q 155.4 689.345 310.8 669.515 T 621.6 683.522 T 932.4 687.61 T 1243.2 677.804 T 1554 725.167 L 1554 0 Z" fill="url(#lg-0.47816362694100456)" opacity="0.4" style="opacity:0.4;animation-play-state:paused" ></path>
<path d="M 0 0 L 0 671.62 Q 155.4 697.861 310.8 666.535 T 621.6 674.94 T 932.4 725.867 T 1243.2 711.58 T 1554 675.138 L 1554 0 Z" fill="url(#lg-0.47816362694100456)" opacity="0.4" style="opacity:0.4;animation-play-state:paused" ></path>
<path d="M 0 0 L 0 706.415 Q 155.4 763.53 310.8 727.228 T 621.6 716.513 T 932.4 670.18 T 1243.2 660.898 T 1554 673.316 L 1554 0 Z" fill="url(#lg-0.47816362694100456)" opacity="0.4" style="opacity:0.4;animation-play-state:paused" ></path></g></svg>