<?xml version="1.0" encoding="utf-8"?><svg xmlns="http://www.w3.org/2000/svg" xmlns:xlink="http://www.w3.org/1999/xlink" width="1554" height="1103" preserveAspectRatio="xMidYMid" viewBox="0 0 1554 1103" style="z-index:1;margin-right:-2px;display:block;background-repeat-y:initial;background-repeat-x:initial;background-color:rgb(229, 230, 230);animation-play-state:paused" ><g transform="translate(777,551.5) scale(1,1) translate(-777,-551.5)" style="transform:matrix(1, 0, 0, 1, 0, 0);animation-play-state:paused" ><linearGradient id="lg-0.09131969927538242" x1="0" x2="1" y1="0" y2="0" style="animation-play-state:paused" ><stop stop-color="#518da6" offset="0" style="animation-play-state:paused" ></stop>

  
<stop stop-color="#efefef" offset="1" style="animation-play-state:paused" ></stop></linearGradient>
<path d="M 0 0 L 0 998.41 Q 155.4 1022.53 310.8 987.523 T 621.6 1025.05 T 932.4 998.957 T 1243.2 1018.17 T 1554 1025.91 L 1554 0 Z" fill="url(#lg-0.09131969927538242)" opacity="0.4" style="opacity:0.4;animation-play-state:paused" ></path>
<path d="M 0 0 L 0 982.102 Q 155.4 1034.66 310.8 1003.98 T 621.6 1021.58 T 932.4 1040.76 T 1243.2 1044.33 T 1554 1005.33 L 1554 0 Z" fill="url(#lg-0.09131969927538242)" opacity="0.4" style="opacity:0.4;animation-play-state:paused" ></path>
<path d="M 0 0 L 0 1024.4 Q 155.4 1061.62 310.8 1035.7 T 621.6 994.247 T 932.4 1047.31 T 1243.2 1039.72 T 1554 1062.38 L 1554 0 Z" fill="url(#lg-0.09131969927538242)" opacity="0.4" style="opacity:0.4;animation-play-state:paused" ></path>
<path d="M 0 0 L 0 980.864 Q 155.4 1100.93 310.8 1058.03 T 621.6 1011.6 T 932.4 1011.39 T 1243.2 1015.71 T 1554 1021.79 L 1554 0 Z" fill="url(#lg-0.09131969927538242)" opacity="0.4" style="opacity:0.4;animation-play-state:paused" ></path>
<path d="M 0 0 L 0 1012.19 Q 155.4 1057.39 310.8 1025.68 T 621.6 1011.93 T 932.4 1013.78 T 1243.2 1045.54 T 1554 1019.47 L 1554 0 Z" fill="url(#lg-0.09131969927538242)" opacity="0.4" style="opacity:0.4;animation-play-state:paused" ></path></g></svg>